{
classes = (
{
code = "A B C D E F G H I J K L M N O P Q R S T U V W X Y Z";
name = Uppercase;
}
);
copyright = "Copyright (c) 2012, Tristen Brown <tristen.brown@gmail.com>, with Reserved Font Name: 'Forsythe'.\012\012This Font Software is licensed under the SIL Open Font License, Version 1.0.\012The license available with a FAQ at:\012http://scripts.sil.org/OFL\012\012September 2012";
customParameters = (
{
name = openTypeNameVersion;
value = "Version 001.000";
},
{
name = postscriptFullName;
value = Forsythe;
},
{
name = styleName;
value = Bold;
}
);
date = "2012-08-15 23:30:18 +0000";
designer = "Tristen Brown";
designerURL = "http://tristen.ca";
familyName = "Forsythe";
featurePrefixes = (
{
automatic = 1;
code = "languagesystem DFLT dflt;\012languagesystem latn dflt;\012";
name = Languagesystems;
}
);
features = (
{
automatic = 1;
code = "pos @Uppercase <5 0 10 0>;";
name = cpsp;
}
);
fontMaster = (
{
alignmentZones = (
"{600, 0}",
"{-200, 0}"
);
ascender = 800;
capHeight = 600;
customParameters = (
{
name = openTypeHheaAscender;
value = 800;
},
{
name = openTypeHheaDescender;
value = "-200";
},
{
name = openTypeHheaLineGap;
value = 90;
},
{
name = winAscent;
value = 600;
},
{
name = winDescent;
value = 200;
}
);
descender = "-200";
horizontalStems = (
80,
88,
94,
95,
96,
122,
144,
176,
200,
212
);
id = "EF4287FA-CE45-4A95-BCF9-A9D9094D729D";
verticalStems = (
96
);
weight = Bold;
xHeight = 600;
}
);
glyphs = (
{
glyphname = A;
layers = (
{
anchors = (
{
name = ogonek;
position = "{364, 10}";
},
{
name = top;
position = "{202, 0}";
}
);
layerId = "EF4287FA-CE45-4A95-BCF9-A9D9094D729D";
name = Bold;
paths = (
{
closed = 1;
nodes = (
"154 600 LINE",
"250 600 LINE",
"394 -200 LINE",
"298 -200 LINE",
"259.5 40 LINE",
"144.5 40 LINE",
"106 -200 LINE",
"10 -200 LINE"
);
},
{
closed = 1;
nodes = (
"202 368 LINE",
"157 120 LINE",
"247 120 LINE"
);
}
);
width = 404;
}
);
unicode = 0041;
userData = {
position = 580;
width = 20;
};
},
{
glyphname = B;
layers = (
{
layerId = "EF4287FA-CE45-4A95-BCF9-A9D9094D729D";
name = Bold;
paths = (
{
closed = 1;
nodes = (
"25 600 LINE",
"281.031 600 LINE SMOOTH",
"313.024 600 OFFCURVE",
"345 568 OFFCURVE",
"345 536 CURVE SMOOTH",
"345 248 LINE",
"281 184 LINE",
"345 152 LINE",
"345 -136 LINE SMOOTH",
"345 -168 OFFCURVE",
"313 -200 OFFCURVE",
"280.938 -200 CURVE SMOOTH",
"25 -200 LINE"
);
},
{
closed = 1;
nodes = (
"121 504 OFFCURVE",
"121 504 OFFCURVE",
"120.913 479.907 CURVE",
"120.969 281 LINE",
"121 248 OFFCURVE",
"121 248 OFFCURVE",
"152.969 248 CURVE SMOOTH",
"216.719 248 LINE SMOOTH",
"249 248 OFFCURVE",
"249 248 OFFCURVE",
"248.938 279 CURVE SMOOTH",
"248.938 472 LINE SMOOTH",
"248.938 504 OFFCURVE",
"248.931 504 OFFCURVE",
"216.938 504 CURVE",
"149 504 LINE"
);
},
{
closed = 1;
nodes = (
"121 152 OFFCURVE",
"121 152 OFFCURVE",
"121 132 CURVE SMOOTH",
"121 -84 LINE",
"121 -104 OFFCURVE",
"121 -104 OFFCURVE",
"141 -104 CURVE SMOOTH",
"229 -104 LINE SMOOTH",
"249 -104 OFFCURVE",
"249 -104 OFFCURVE",
"249 -84 CURVE",
"249 132 LINE SMOOTH",
"249 152 OFFCURVE",
"249 152 OFFCURVE",
"229 152 CURVE",
"141 152 LINE"
);
}
);
width = 370;
}
);
unicode = 0042;
userData = {
position = 249;
width = 64;
};
},
{
glyphname = C;
layers = (
{
anchors = (
{
name = bottom;
position = "{169, 0}";
},
{
name = top;
position = "{169, 0}";
}
);
layerId = "EF4287FA-CE45-4A95-BCF9-A9D9094D729D";
name = Bold;
paths = (
{
closed = 1;
nodes = (
"249 600 LINE SMOOTH",
"281 600 OFFCURVE",
"313 567.986 OFFCURVE",
"313 535.999 CURVE SMOOTH",
"313 439.999 LINE",
"217 439.999 LINE",
"217 503.999 LINE",
"153 503.905 LINE SMOOTH",
"121 503.905 OFFCURVE",
"121 503.901 OFFCURVE",
"121 471.905 CURVE SMOOTH",
"121 -72 LINE SMOOTH",
"121 -104 OFFCURVE",
"121 -104 OFFCURVE",
"152.107 -104 CURVE SMOOTH",
"217 -104 LINE",
"217 -40 LINE",
"313 -40 LINE",
"313 -136 LINE SMOOTH",
"313 -168 OFFCURVE",
"281 -200 OFFCURVE",
"249 -200 CURVE SMOOTH",
"89 -200 LINE SMOOTH",
"57 -200 OFFCURVE",
"25 -168 OFFCURVE",
"25 -136 CURVE SMOOTH",
"25 535.999 LINE SMOOTH",
"25 567.936 OFFCURVE",
"57 600 OFFCURVE",
"89 600 CURVE"
);
}
);
width = 338;
}
);
unicode = 0043;
userData = {
position = 217;
width = 64;
};
},
{
glyphname = D;
layers = (
{
anchors = (
{
name = center;
position = "{177, 0}";
},
{
name = top;
position = "{177, 0}";
}
);
layerId = "EF4287FA-CE45-4A95-BCF9-A9D9094D729D";
name = Bold;
paths = (
{
closed = 1;
nodes = (
"25 600 LINE",
"265 600 LINE SMOOTH",
"297 600 OFFCURVE",
"329 568 OFFCURVE",
"329 536 CURVE SMOOTH",
"329 -136 LINE SMOOTH",
"329 -168 OFFCURVE",
"297 -200 OFFCURVE",
"265 -200 CURVE SMOOTH",
"25 -200 LINE"
);
},
{
closed = 1;
nodes = (
"150 504 LINE SMOOTH",
"121 504 OFFCURVE",
"121 504 OFFCURVE",
"121 482 CURVE",
"121 -72 LINE",
"121 -104 OFFCURVE",
"121 -104 OFFCURVE",
"150 -104 CURVE",
"201 -104 LINE",
"233 -104 OFFCURVE",
"233 -104 OFFCURVE",
"233 -72 CURVE",
"233 475 LINE",
"233 504 OFFCURVE",
"233 504 OFFCURVE",
"201 504 CURVE SMOOTH"
);
}
);
width = 354;
}
);
unicode = 0044;
userData = {
position = 217;
width = 64;
};
},
{
glyphname = E;
layers = (
{
anchors = (
{
name = bottom;
position = "{153, 0}";
},
{
name = ogonek;
position = "{275, 10}";
},
{
name = top;
position = "{153, 0}";
}
);
layerId = "EF4287FA-CE45-4A95-BCF9-A9D9094D729D";
name = Bold;
paths = (
{
closed = 1;
nodes = (
"25 600 LINE",
"281 600 LINE",
"281 504 LINE",
"121 504 LINE",
"121 248 LINE",
"281 248 LINE",
"281 152 LINE",
"121 152 LINE",
"121 -104 LINE",
"281 -104 LINE",
"281 -200 LINE",
"25 -200 LINE"
);
}
);
width = 306;
}
);
unicode = 0045;
userData = {
position = 25;
width = 64;
};
},
{
glyphname = F;
layers = (
{
layerId = "EF4287FA-CE45-4A95-BCF9-A9D9094D729D";
name = Bold;
paths = (
{
closed = 1;
nodes = (
"25 600 LINE",
"281 600 LINE",
"281 504 LINE",
"121 504 LINE",
"121 248 LINE",
"281 248 LINE",
"281 152 LINE",
"121 152 LINE",
"120 -200 LINE",
"25 -200 LINE"
);
}
);
width = 306;
}
);
unicode = 0046;
userData = {
position = 25;
width = 64;
};
},
{
glyphname = G;
layers = (
{
anchors = (
{
name = bottom;
position = "{177, 0}";
},
{
name = top;
position = "{177, 0}";
}
);
layerId = "EF4287FA-CE45-4A95-BCF9-A9D9094D729D";
name = Bold;
paths = (
{
closed = 1;
nodes = (
"265 600 LINE SMOOTH",
"297 600 OFFCURVE",
"329 567.989 OFFCURVE",
"329 535.999 CURVE SMOOTH",
"329 439.999 LINE",
"233 439.999 LINE",
"233 503.999 LINE",
"153 503.905 LINE SMOOTH",
"121 503.905 OFFCURVE",
"121 503.901 OFFCURVE",
"121 471.905 CURVE SMOOTH",
"121 -72 LINE SMOOTH",
"121 -104 OFFCURVE",
"121 -104 OFFCURVE",
"152.107 -104 CURVE SMOOTH",
"233 -104 LINE",
"233 151.968 LINE",
"169 151.999 LINE",
"169 247.999 LINE",
"329 247.999 LINE",
"329 -136 LINE SMOOTH",
"329 -168 OFFCURVE",
"297 -200 OFFCURVE",
"265 -200 CURVE SMOOTH",
"89 -200 LINE SMOOTH",
"57 -200 OFFCURVE",
"25 -168 OFFCURVE",
"25 -136 CURVE SMOOTH",
"25 535.999 LINE SMOOTH",
"25 568 OFFCURVE",
"51 600 OFFCURVE",
"109 600 CURVE"
);
}
);
width = 354;
}
);
unicode = 0047;
userData = {
position = 233;
width = 64;
};
},
{
glyphname = H;
layers = (
{
anchors = (
{
name = center;
position = "{177, 0}";
},
{
name = top;
position = "{177, 0}";
}
);
layerId = "EF4287FA-CE45-4A95-BCF9-A9D9094D729D";
name = Bold;
paths = (
{
closed = 1;
nodes = (
"25 600 LINE",
"121 600 LINE",
"121 248 LINE",
"233 248 LINE",
"233 600 LINE",
"329 600 LINE",
"329 -200 LINE",
"233 -200 LINE",
"233 152 LINE",
"121 152 LINE",
"121 -200 LINE",
"25 -200 LINE"
);
}
);
width = 354;
}
);
unicode = 0048;
userData = {
position = 233;
width = 64;
};
},
{
glyphname = I;
layers = (
{
anchors = (
{
name = ogonek;
position = "{131, 10}";
},
{
name = top;
position = "{73, 0}";
}
);
layerId = "EF4287FA-CE45-4A95-BCF9-A9D9094D729D";
name = Bold;
paths = (
{
closed = 1;
nodes = (
"25 600 LINE",
"121 600 LINE",
"121 -200 LINE",
"25 -200 LINE"
);
}
);
width = 146;
}
);
unicode = 0049;
userData = {
position = 25;
width = 64;
};
},
{
glyphname = J;
layers = (
{
anchors = (
{
name = top;
position = "{161, 0}";
}
);
layerId = "EF4287FA-CE45-4A95-BCF9-A9D9094D729D";
name = Bold;
paths = (
{
closed = 1;
nodes = (
"201.001 600 LINE",
"297 600 LINE",
"297 -136 LINE SMOOTH",
"297 -168 OFFCURVE",
"265 -200 OFFCURVE",
"233 -200 CURVE SMOOTH",
"89 -200 LINE SMOOTH",
"56.9746 -200 OFFCURVE",
"25 -168 OFFCURVE",
"25 -136 CURVE SMOOTH",
"25 120 LINE",
"121 120 LINE",
"121 -84 LINE SMOOTH",
"121 -104 OFFCURVE",
"121 -104 OFFCURVE",
"141 -104 CURVE SMOOTH",
"181 -104 LINE",
"201 -104 OFFCURVE",
"201 -104 OFFCURVE",
"201 -84 CURVE SMOOTH"
);
}
);
width = 322;
}
);
unicode = 004A;
userData = {
position = 201;
width = 64;
};
},
{
glyphname = K;
layers = (
{
anchors = (
{
name = bottom;
position = "{185, 0}";
},
{
name = top;
position = "{185, 0}";
}
);
layerId = "EF4287FA-CE45-4A95-BCF9-A9D9094D729D";
name = Bold;
paths = (
{
closed = 1;
nodes = (
"25 600 LINE",
"121 600 LINE",
"121 268 LINE SMOOTH",
"121 248 OFFCURVE",
"121 248 OFFCURVE",
"141 248 CURVE SMOOTH",
"205 248 LINE SMOOTH",
"225 248 OFFCURVE",
"225 248 OFFCURVE",
"226 268 CURVE",
"248.997 600 LINE",
"344.997 600 LINE",
"313 248 LINE",
"281 184 LINE",
"345 152 LINE",
"344.504 -200 LINE",
"248.504 -200 LINE",
"249 132 LINE SMOOTH",
"249 152 OFFCURVE",
"249 152 OFFCURVE",
"229 152 CURVE SMOOTH",
"141 152 LINE SMOOTH",
"121 152 OFFCURVE",
"121 152 OFFCURVE",
"121 132 CURVE SMOOTH",
"120.501 -200 LINE",
"25 -200 LINE"
);
}
);
width = 370;
}
);
unicode = 004B;
userData = {
position = 241;
width = 64;
};
},
{
glyphname = L;
layers = (
{
anchors = (
{
name = bottom;
position = "{130, 0}";
},
{
name = top;
position = "{130, 0}";
}
);
layerId = "EF4287FA-CE45-4A95-BCF9-A9D9094D729D";
name = Bold;
paths = (
{
closed = 1;
nodes = (
"25 600 LINE",
"121 600 LINE",
"121 -104 LINE",
"249 -104 LINE",
"249 -200 LINE",
"25 -200 LINE"
);
}
);
width = 259;
}
);
unicode = 004C;
userData = {
position = 25;
width = 64;
};
},
{
glyphname = M;
layers = (
{
layerId = "EF4287FA-CE45-4A95-BCF9-A9D9094D729D";
name = Bold;
paths = (
{
closed = 1;
nodes = (
"25 -200 LINE",
"25 600 LINE",
"89 600 LINE",
"217 168 LINE",
"344.915 600 LINE",
"408.999 600 LINE",
"409 -200 LINE",
"313 -200 LINE",
"313 256 LINE",
"217 -104 LINE",
"121.002 256 LINE",
"121 -200 LINE"
);
}
);
width = 434;
}
);
unicode = 004D;
userData = {
position = 329;
width = 48;
};
},
{
glyphname = N;
layers = (
{
anchors = (
{
name = bottom;
position = "{201, 0}";
},
{
name = top;
position = "{201, 0}";
}
);
layerId = "EF4287FA-CE45-4A95-BCF9-A9D9094D729D";
name = Bold;
paths = (
{
closed = 1;
nodes = (
"25 600 LINE",
"121.094 600 LINE",
"280.969 56 LINE",
"280.969 600 LINE",
"377 600 LINE",
"377 -200 LINE",
"280.969 -200 LINE",
"120.688 344 LINE",
"121.031 -200 LINE",
"25 -200 LINE"
);
}
);
width = 402;
}
);
unicode = 004E;
userData = {
position = 281;
width = 64;
};
},
{
glyphname = O;
layers = (
{
anchors = (
{
name = top;
position = "{185, 0}";
}
);
layerId = "EF4287FA-CE45-4A95-BCF9-A9D9094D729D";
name = Bold;
paths = (
{
closed = 1;
nodes = (
"25 567 OFFCURVE",
"57 600 OFFCURVE",
"89 600 CURVE SMOOTH",
"281 600 LINE SMOOTH",
"313.025 600 OFFCURVE",
"345 567 OFFCURVE",
"345 535 CURVE SMOOTH",
"345 -135 LINE SMOOTH",
"345 -167 OFFCURVE",
"313 -200 OFFCURVE",
"281 -200 CURVE SMOOTH",
"89 -200 LINE SMOOTH",
"57 -200 OFFCURVE",
"25 -167 OFFCURVE",
"25 -135 CURVE SMOOTH",
"25 535 LINE SMOOTH"
);
},
{
closed = 1;
nodes = (
"150 504 LINE",
"121 504 OFFCURVE",
"121 504 OFFCURVE",
"121 475 CURVE SMOOTH",
"121 -75 LINE SMOOTH",
"121 -104 OFFCURVE",
"121 -104 OFFCURVE",
"150 -104 CURVE SMOOTH",
"220 -104 LINE SMOOTH",
"249 -104 OFFCURVE",
"249 -104 OFFCURVE",
"249 -75 CURVE SMOOTH",
"249 475 LINE SMOOTH",
"249 504 OFFCURVE",
"249 504 OFFCURVE",
"215 504 CURVE SMOOTH"
);
}
);
width = 370;
}
);
unicode = 004F;
userData = {
position = 233;
width = 64;
};
},
{
glyphname = P;
layers = (
{
layerId = "EF4287FA-CE45-4A95-BCF9-A9D9094D729D";
name = Bold;
paths = (
{
closed = 1;
nodes = (
"25 600 LINE",
"269 600 LINE SMOOTH",
"299 600 OFFCURVE",
"329 570 OFFCURVE",
"329 540 CURVE SMOOTH",
"329 216 LINE SMOOTH",
"329 184 OFFCURVE",
"297 152 OFFCURVE",
"265 152 CURVE SMOOTH",
"121 152 LINE",
"120.719 -200 LINE",
"25 -200 LINE"
);
},
{
closed = 1;
nodes = (
"121 504 OFFCURVE",
"121 504 OFFCURVE",
"121 474 CURVE SMOOTH",
"121 278 LINE SMOOTH",
"121 248 OFFCURVE",
"121 248 OFFCURVE",
"151 248 CURVE SMOOTH",
"203 248 LINE SMOOTH",
"233 248 OFFCURVE",
"233 248 OFFCURVE",
"233 278 CURVE SMOOTH",
"233 474 LINE SMOOTH",
"233 504 OFFCURVE",
"233 504 OFFCURVE",
"203 504 CURVE",
"151 504 LINE SMOOTH"
);
}
);
width = 354;
}
);
unicode = 0050;
userData = {
position = 233;
width = 64;
};
},
{
glyphname = Q;
layers = (
{
layerId = "EF4287FA-CE45-4A95-BCF9-A9D9094D729D";
name = Bold;
paths = (
{
closed = 1;
nodes = (
"25 568 OFFCURVE",
"56.9746 600 OFFCURVE",
"89 600 CURVE SMOOTH",
"265 600 LINE SMOOTH",
"297.025 600 OFFCURVE",
"329 568 OFFCURVE",
"329 536 CURVE SMOOTH",
"329 -136 LINE SMOOTH",
"329 -168 OFFCURVE",
"297.025 -200 OFFCURVE",
"265 -200 CURVE SMOOTH",
"89 -200 LINE SMOOTH",
"56.9746 -200 OFFCURVE",
"25 -168 OFFCURVE",
"25 -136 CURVE SMOOTH",
"25 536 LINE SMOOTH"
);
},
{
closed = 1;
nodes = (
"121 504 OFFCURVE",
"121 504 OFFCURVE",
"121 484 CURVE",
"121 -84 LINE",
"121 -104 OFFCURVE",
"121 -104 OFFCURVE",
"141 -104 CURVE SMOOTH",
"213 -104 LINE",
"233 -104 OFFCURVE",
"233 -104 OFFCURVE",
"233 -84 CURVE SMOOTH",
"233 40 LINE",
"185 40 LINE",
"185 136.001 LINE",
"233 136.001 LINE",
"233 484 LINE",
"233 504 OFFCURVE",
"233 504 OFFCURVE",
"213 504 CURVE",
"141 504 LINE"
);
}
);
width = 354;
}
);
unicode = 0051;
userData = {
position = 233;
width = 64;
};
},
{
glyphname = R;
layers = (
{
anchors = (
{
name = bottom;
position = "{185, 0}";
},
{
name = top;
position = "{185, 0}";
}
);
layerId = "EF4287FA-CE45-4A95-BCF9-A9D9094D729D";
name = Bold;
paths = (
{
closed = 1;
nodes = (
"25 600 LINE",
"281.031 600 LINE SMOOTH",
"313.016 600 OFFCURVE",
"345 568 OFFCURVE",
"345 536 CURVE SMOOTH",
"344.688 248 LINE",
"280.719 184 LINE",
"344.906 152 LINE",
"344.594 -200 LINE",
"248.656 -200 LINE",
"249 132 LINE",
"249 152 OFFCURVE",
"249 152 OFFCURVE",
"229 152 CURVE SMOOTH",
"141 152 LINE SMOOTH",
"121 152 OFFCURVE",
"121 152 OFFCURVE",
"121 132 CURVE",
"120.719 -200 LINE",
"25 -200 LINE"
);
},
{
closed = 1;
nodes = (
"141 504 LINE",
"121 504 OFFCURVE",
"121 504 OFFCURVE",
"121 484 CURVE SMOOTH",
"121 268 LINE SMOOTH",
"121 248 OFFCURVE",
"121 248 OFFCURVE",
"141 248 CURVE SMOOTH",
"229 248 LINE",
"249 248 OFFCURVE",
"249 248 OFFCURVE",
"249 268 CURVE SMOOTH",
"249 484 LINE SMOOTH",
"249 504 OFFCURVE",
"249 504 OFFCURVE",
"229 504 CURVE"
);
}
);
width = 370;
}
);
unicode = 0052;
userData = {
position = 233;
width = 64;
};
},
{
glyphname = S;
layers = (
{
anchors = (
{
name = bottom;
position = "{169, 0}";
},
{
name = top;
position = "{169, 0}";
}
);
layerId = "EF4287FA-CE45-4A95-BCF9-A9D9094D729D";
name = Bold;
paths = (
{
closed = 1;
nodes = (
"25 566 OFFCURVE",
"55 600 OFFCURVE",
"88.9375 600 CURVE SMOOTH",
"248.75 600 LINE SMOOTH",
"280.715 600 OFFCURVE",
"312.688 568 OFFCURVE",
"312.688 536 CURVE SMOOTH",
"313 440 LINE",
"217.094 440 LINE",
"217 484 LINE SMOOTH",
"217 504 OFFCURVE",
"217 504 OFFCURVE",
"197 504 CURVE SMOOTH",
"141 504 LINE SMOOTH",
"121 504 OFFCURVE",
"121 504 OFFCURVE",
"121 484 CURVE SMOOTH",
"121.219 376 LINE",
"121.219 280 LINE SMOOTH",
"121.219 248 OFFCURVE",
"121.226 248 OFFCURVE",
"153.188 248 CURVE SMOOTH",
"248.75 248 LINE SMOOTH",
"280.715 248 OFFCURVE",
"312.688 216 OFFCURVE",
"312.688 184 CURVE SMOOTH",
"312.688 -136 LINE SMOOTH",
"312.688 -168 OFFCURVE",
"280.715 -200 OFFCURVE",
"248.75 -200 CURVE SMOOTH",
"88.9375 -200 LINE SMOOTH",
"56.9727 -200 OFFCURVE",
"25 -168 OFFCURVE",
"25 -136 CURVE SMOOTH",
"25.3125 -40 LINE",
"121.219 -40 LINE",
"121 -72 LINE SMOOTH",
"121 -104 OFFCURVE",
"121 -104 OFFCURVE",
"154.25 -104 CURVE SMOOTH",
"185.156 -104 LINE SMOOTH",
"217.121 -104 OFFCURVE",
"217 -104 OFFCURVE",
"217 -72 CURVE SMOOTH",
"217 132 LINE SMOOTH",
"217 152 OFFCURVE",
"217 152 OFFCURVE",
"197 152 CURVE SMOOTH",
"88.9375 152 LINE SMOOTH",
"56.9727 152 OFFCURVE",
"25 184 OFFCURVE",
"25 216 CURVE SMOOTH",
"25 536 LINE"
);
}
);
width = 338;
}
);
unicode = 0053;
userData = {
position = 217;
width = 64;
};
},
{
glyphname = T;
layers = (
{
anchors = (
{
name = bottom;
position = "{170, 0}";
},
{
name = center;
position = "{170, 0}";
},
{
name = top;
position = "{170, 0}";
}
);
layerId = "EF4287FA-CE45-4A95-BCF9-A9D9094D729D";
name = Bold;
paths = (
{
closed = 1;
nodes = (
"10 600 LINE",
"330 600 LINE",
"330 504 LINE",
"218 504 LINE",
"218 -200 LINE",
"122 -200 LINE",
"122 504 LINE",
"10 504 LINE"
);
}
);
width = 340;
}
);
unicode = 0054;
userData = {
position = 122;
width = 64;
};
},
{
glyphname = U;
layers = (
{
anchors = (
{
name = ogonek;
position = "{319, 10}";
},
{
name = top;
position = "{177, 0}";
}
);
layerId = "EF4287FA-CE45-4A95-BCF9-A9D9094D729D";
name = Bold;
paths = (
{
closed = 1;
nodes = (
"25 600 LINE",
"121 600 LINE",
"121 -72 LINE SMOOTH",
"121 -104 OFFCURVE",
"120 -104 OFFCURVE",
"152 -104 CURVE SMOOTH",
"201 -104 LINE SMOOTH",
"233 -104 OFFCURVE",
"233 -104 OFFCURVE",
"233 -72 CURVE SMOOTH",
"233 600 LINE",
"329 600 LINE",
"329 -136 LINE SMOOTH",
"329 -168 OFFCURVE",
"297 -200 OFFCURVE",
"265 -200 CURVE SMOOTH",
"89 -200 LINE SMOOTH",
"57 -200 OFFCURVE",
"25 -168 OFFCURVE",
"25 -136 CURVE SMOOTH"
);
}
);
width = 354;
}
);
unicode = 0055;
userData = {
position = 217;
width = 64;
};
},
{
glyphname = V;
layers = (
{
layerId = "EF4287FA-CE45-4A95-BCF9-A9D9094D729D";
name = Bold;
paths = (
{
closed = 1;
nodes = (
"20 600 LINE",
"116 600 LINE",
"212 0 LINE",
"308 600 LINE",
"404 600 LINE",
"260 -200 LINE",
"164 -200 LINE"
);
}
);
width = 424;
}
);
unicode = 0056;
userData = {
position = 580;
width = 20;
};
},
{
glyphname = W;
layers = (
{
anchors = (
{
name = top;
position = "{201, 0}";
}
);
layerId = "EF4287FA-CE45-4A95-BCF9-A9D9094D729D";
name = Bold;
paths = (
{
closed = 1;
nodes = (
"25 600 LINE",
"121 600 LINE",
"121 120 LINE",
"201 424 LINE",
"281 120 LINE",
"281 600 LINE",
"377 600 LINE",
"377 -200 LINE",
"313 -200 LINE",
"201.085 168 LINE",
"89 -200 LINE",
"25 -200 LINE"
);
}
);
width = 402;
}
);
unicode = 0057;
userData = {
position = 297;
width = 48;
};
},
{
glyphname = X;
layers = (
{
layerId = "EF4287FA-CE45-4A95-BCF9-A9D9094D729D";
name = Bold;
paths = (
{
closed = 1;
nodes = (
"25 600 LINE",
"121 600 LINE",
"201 264 LINE",
"281 600 LINE",
"377 600 LINE",
"281 184 LINE",
"377 -200 LINE",
"281 -200 LINE",
"201 88 LINE",
"121 -200 LINE",
"25 -200 LINE",
"121 184 LINE"
);
}
);
width = 402;
}
);
unicode = 0058;
userData = {
position = 25;
width = 64;
};
},
{
glyphname = Y;
layers = (
{
anchors = (
{
name = top;
position = "{192, 0}";
}
);
layerId = "EF4287FA-CE45-4A95-BCF9-A9D9094D729D";
name = Bold;
paths = (
{
closed = 1;
nodes = (
"0 600 LINE",
"96 600 LINE",
"192 248 LINE",
"288 600 LINE",
"384 600 LINE",
"240 120 LINE",
"240 -200 LINE",
"144 -200 LINE",
"144 120 LINE"
);
}
);
width = 384;
}
);
unicode = 0059;
userData = {
position = 288;
width = 64;
};
},
{
glyphname = Z;
layers = (
{
anchors = (
{
name = top;
position = "{169, 0}";
}
);
layerId = "EF4287FA-CE45-4A95-BCF9-A9D9094D729D";
name = Bold;
paths = (
{
closed = 1;
nodes = (
"25 600 LINE",
"313 600 LINE",
"144 -104 LINE",
"313 -104 LINE",
"313 -200 LINE",
"25 -200 LINE",
"194 504 LINE",
"25 504 LINE"
);
}
);
width = 338;
}
);
unicode = 005A;
userData = {
position = 25;
width = 256;
};
},
{
glyphname = a;
layers = (
{
anchors = (
{
name = ogonek;
position = "{364, 10}";
},
{
name = top;
position = "{202, 0}";
}
);
layerId = "EF4287FA-CE45-4A95-BCF9-A9D9094D729D";
name = Bold;
paths = (
{
closed = 1;
nodes = (
"154 600 LINE",
"250 600 LINE",
"394 -200 LINE",
"298 -200 LINE",
"259.5 40 LINE",
"144.5 40 LINE",
"106 -200 LINE",
"10 -200 LINE"
);
},
{
closed = 1;
nodes = (
"202 368 LINE",
"157 120 LINE",
"247 120 LINE"
);
}
);
width = 404;
}
);
leftKerningGroup = A;
rightKerningGroup = A;
unicode = 0061;
userData = {
position = 580;
width = 20;
};
},
{
glyphname = b;
layers = (
{
layerId = "EF4287FA-CE45-4A95-BCF9-A9D9094D729D";
name = Bold;
paths = (
{
closed = 1;
nodes = (
"25 600 LINE",
"281.031 600 LINE SMOOTH",
"313.024 600 OFFCURVE",
"345 568 OFFCURVE",
"345 536 CURVE SMOOTH",
"345 248 LINE",
"281 184 LINE",
"345 152 LINE",
"345 -136 LINE SMOOTH",
"345 -168 OFFCURVE",
"313 -200 OFFCURVE",
"280.938 -200 CURVE SMOOTH",
"25 -200 LINE"
);
},
{
closed = 1;
nodes = (
"121 504 OFFCURVE",
"121 504 OFFCURVE",
"120.913 479.907 CURVE",
"120.969 281 LINE",
"121 248 OFFCURVE",
"121 248 OFFCURVE",
"152.969 248 CURVE SMOOTH",
"216.719 248 LINE SMOOTH",
"249 248 OFFCURVE",
"249 248 OFFCURVE",
"248.938 279 CURVE SMOOTH",
"248.938 472 LINE SMOOTH",
"248.938 504 OFFCURVE",
"248.931 504 OFFCURVE",
"216.938 504 CURVE",
"149 504 LINE"
);
},
{
closed = 1;
nodes = (
"121 152 OFFCURVE",
"121 152 OFFCURVE",
"121 132 CURVE SMOOTH",
"121 -84 LINE",
"121 -104 OFFCURVE",
"121 -104 OFFCURVE",
"141 -104 CURVE SMOOTH",
"229 -104 LINE SMOOTH",
"249 -104 OFFCURVE",
"249 -104 OFFCURVE",
"249 -84 CURVE",
"249 132 LINE SMOOTH",
"249 152 OFFCURVE",
"249 152 OFFCURVE",
"229 152 CURVE",
"141 152 LINE"
);
}
);
width = 370;
}
);
unicode = 0062;
userData = {
position = 249;
width = 64;
};
},
{
glyphname = c;
layers = (
{
anchors = (
{
name = bottom;
position = "{169, 0}";
},
{
name = top;
position = "{169, 0}";
}
);
layerId = "EF4287FA-CE45-4A95-BCF9-A9D9094D729D";
name = Bold;
paths = (
{
closed = 1;
nodes = (
"249.001 600 LINE SMOOTH",
"281 600 OFFCURVE",
"313 567.986 OFFCURVE",
"313 535.999 CURVE SMOOTH",
"313 439.999 LINE",
"217 439.999 LINE",
"217 503.999 LINE",
"153 503.905 LINE SMOOTH",
"121 503.905 OFFCURVE",
"121 503.901 OFFCURVE",
"121 471.905 CURVE SMOOTH",
"121 -72 LINE SMOOTH",
"121 -104 OFFCURVE",
"121 -104 OFFCURVE",
"152.107 -104 CURVE SMOOTH",
"217 -104 LINE",
"217 -40 LINE",
"313 -40 LINE",
"313 -136 LINE SMOOTH",
"313 -168 OFFCURVE",
"281 -200 OFFCURVE",
"249 -200 CURVE SMOOTH",
"89 -200 LINE SMOOTH",
"57 -200 OFFCURVE",
"25 -168 OFFCURVE",
"25 -136 CURVE SMOOTH",
"25 535.999 LINE SMOOTH",
"25 567.936 OFFCURVE",
"56 600 OFFCURVE",
"92 600 CURVE"
);
}
);
width = 338;
}
);
unicode = 0063;
userData = {
position = 217;
width = 64;
};
},
{
glyphname = d;
layers = (
{
anchors = (
{
name = center;
position = "{177, 0}";
}
);
layerId = "EF4287FA-CE45-4A95-BCF9-A9D9094D729D";
name = Bold;
paths = (
{
closed = 1;
nodes = (
"25 600 LINE",
"264.947 599.999 LINE SMOOTH",
"296.973 599.999 OFFCURVE",
"329 567.999 OFFCURVE",
"329 535.999 CURVE SMOOTH",
"329 -136 LINE SMOOTH",
"329 -168 OFFCURVE",
"296.973 -200 OFFCURVE",
"264.947 -200 CURVE SMOOTH",
"25 -200 LINE"
);
},
{
closed = 1;
nodes = (
"141 504 LINE SMOOTH",
"121 504 OFFCURVE",
"121 504 OFFCURVE",
"121 484 CURVE",
"121 -84 LINE",
"121 -104 OFFCURVE",
"121 -104 OFFCURVE",
"141 -104 CURVE",
"213 -104 LINE SMOOTH",
"233 -104 OFFCURVE",
"233 -104 OFFCURVE",
"233 -84 CURVE",
"233 484 LINE",
"233 504 OFFCURVE",
"233 504 OFFCURVE",
"213 504 CURVE SMOOTH"
);
}
);
width = 354;
}
);
unicode = 0064;
userData = {
position = 217;
width = 64;
};
},
{
glyphname = e;
layers = (
{
anchors = (
{
name = bottom;
position = "{153, 0}";
},
{
name = ogonek;
position = "{275, 10}";
},
{
name = top;
position = "{153, 0}";
}
);
layerId = "EF4287FA-CE45-4A95-BCF9-A9D9094D729D";
name = Bold;
paths = (
{
closed = 1;
nodes = (
"25 600 LINE",
"281 600 LINE",
"281 504 LINE",
"121 504 LINE",
"121 248 LINE",
"281 248 LINE",
"281 152 LINE",
"121 152 LINE",
"121 -104 LINE",
"281 -104 LINE",
"281 -200 LINE",
"25 -200 LINE"
);
}
);
width = 306;
}
);
unicode = 0065;
userData = {
position = 25;
width = 64;
};
},
{
glyphname = f;
layers = (
{
layerId = "EF4287FA-CE45-4A95-BCF9-A9D9094D729D";
name = Bold;
paths = (
{
closed = 1;
nodes = (
"25 600 LINE",
"281 600 LINE",
"281 504 LINE",
"121 504 LINE",
"121 248 LINE",
"281 248 LINE",
"281 152 LINE",
"121 152 LINE",
"121 -200 LINE SMOOTH",
"25 -200 LINE"
);
}
);
width = 316;
}
);
unicode = 0066;
userData = {
position = 25;
width = 64;
};
},
{
glyphname = g;
layers = (
{
anchors = (
{
name = top;
position = "{177, 0}";
}
);
layerId = "EF4287FA-CE45-4A95-BCF9-A9D9094D729D";
name = Bold;
paths = (
{
closed = 1;
nodes = (
"265 600 LINE SMOOTH",
"297 600 OFFCURVE",
"329 567.989 OFFCURVE",
"329 535.999 CURVE SMOOTH",
"329 439.999 LINE",
"233 439.999 LINE",
"233 503.999 LINE",
"153 503.905 LINE SMOOTH",
"121 503.905 OFFCURVE",
"121 503.901 OFFCURVE",
"121 471.905 CURVE SMOOTH",
"121 -72 LINE SMOOTH",
"121 -104 OFFCURVE",
"121 -104 OFFCURVE",
"152.107 -104 CURVE SMOOTH",
"233 -104 LINE",
"233 151.968 LINE",
"169 151.999 LINE",
"169 247.999 LINE",
"329 247.999 LINE",
"329 -136 LINE SMOOTH",
"329 -168 OFFCURVE",
"297 -200 OFFCURVE",
"265 -200 CURVE SMOOTH",
"89 -200 LINE SMOOTH",
"57 -200 OFFCURVE",
"25 -168 OFFCURVE",
"25 -136 CURVE SMOOTH",
"25 535.999 LINE SMOOTH",
"25 568 OFFCURVE",
"51 600 OFFCURVE",
"109 600 CURVE"
);
}
);
width = 354;
}
);
unicode = 0067;
userData = {
position = 233;
width = 64;
};
},
{
glyphname = h;
layers = (
{
anchors = (
{
name = center;
position = "{177, 0}";
},
{
name = top;
position = "{177, 0}";
}
);
layerId = "EF4287FA-CE45-4A95-BCF9-A9D9094D729D";
name = Bold;
paths = (
{
closed = 1;
nodes = (
"25 600 LINE",
"121 600 LINE",
"121 248 LINE",
"233 248 LINE",
"233 600 LINE",
"329 600 LINE",
"329 -200 LINE",
"233 -200 LINE",
"233 152 LINE",
"121 152 LINE",
"121 -200 LINE",
"25 -200 LINE"
);
}
);
width = 354;
}
);
unicode = 0068;
userData = {
position = 233;
width = 64;
};
},
{
glyphname = i;
layers = (
{
layerId = "EF4287FA-CE45-4A95-BCF9-A9D9094D729D";
name = Bold;
paths = (
{
closed = 1;
nodes = (
"35 600 LINE",
"131 600 LINE",
"131 -200 LINE",
"35 -200 LINE"
);
}
);
width = 166;
}
);
unicode = 0069;
userData = {
position = 35;
width = 64;
};
},
{
glyphname = j;
layers = (
{
layerId = "EF4287FA-CE45-4A95-BCF9-A9D9094D729D";
name = Bold;
paths = (
{
closed = 1;
nodes = (
"201.001 600 LINE",
"297 600 LINE",
"297 -136 LINE SMOOTH",
"297 -168 OFFCURVE",
"265 -200 OFFCURVE",
"233 -200 CURVE SMOOTH",
"89 -200 LINE SMOOTH",
"56.975 -200 OFFCURVE",
"25 -168 OFFCURVE",
"25 -136 CURVE SMOOTH",
"25 120 LINE",
"121 120 LINE",
"121 -84 LINE SMOOTH",
"121 -104 OFFCURVE",
"121 -104 OFFCURVE",
"141 -104 CURVE SMOOTH",
"181 -104 LINE",
"201 -104 OFFCURVE",
"201 -104 OFFCURVE",
"201 -84 CURVE SMOOTH"
);
}
);
width = 322;
}
);
unicode = 006A;
userData = {
position = 201;
width = 64;
};
},
{
glyphname = k;
layers = (
{
anchors = (
{
name = bottom;
position = "{185, 0}";
}
);
layerId = "EF4287FA-CE45-4A95-BCF9-A9D9094D729D";
name = Bold;
paths = (
{
closed = 1;
nodes = (
"25 600 LINE",
"121 600 LINE",
"121 268 LINE SMOOTH",
"121 248 OFFCURVE",
"121 248 OFFCURVE",
"141 248 CURVE SMOOTH",
"205 248 LINE SMOOTH",
"225 248 OFFCURVE",
"225 248 OFFCURVE",
"226 268 CURVE",
"248.997 600 LINE",
"344.997 600 LINE",
"313 248 LINE",
"281 184 LINE",
"345 152 LINE",
"344.504 -200 LINE",
"248.504 -200 LINE",
"249 132 LINE SMOOTH",
"249 152 OFFCURVE",
"249 152 OFFCURVE",
"229 152 CURVE SMOOTH",
"141 152 LINE SMOOTH",
"121 152 OFFCURVE",
"121 152 OFFCURVE",
"121 132 CURVE SMOOTH",
"120.501 -200 LINE",
"25 -200 LINE"
);
}
);
width = 370;
}
);
unicode = 006B;
userData = {
position = 241;
width = 64;
};
},
{
glyphname = l;
layers = (
{
anchors = (
{
name = bottom;
position = "{130, 0}";
},
{
name = top;
position = "{130, 0}";
},
{
name = topright;
position = "{239, 0}";
}
);
layerId = "EF4287FA-CE45-4A95-BCF9-A9D9094D729D";
name = Bold;
paths = (
{
closed = 1;
nodes = (
"25 600 LINE",
"121 600 LINE",
"121 -104 LINE",
"249 -104 LINE",
"249 -200 LINE",
"25 -200 LINE"
);
}
);
width = 259;
}
);
unicode = 006C;
userData = {
position = 25;
width = 64;
};
},
{
glyphname = m;
layers = (
{
layerId = "EF4287FA-CE45-4A95-BCF9-A9D9094D729D";
name = Bold;
paths = (
{
closed = 1;
nodes = (
"25 -200 LINE",
"25 600 LINE",
"89 600 LINE",
"217 168 LINE",
"344.915 600 LINE",
"408.999 600 LINE",
"409 -200 LINE",
"313 -200 LINE",
"313 256 LINE",
"217 -104 LINE",
"121.002 256 LINE",
"121 -200 LINE"
);
}
);
width = 434;
}
);
unicode = 006D;
userData = {
position = 329;
width = 48;
};
},
{
glyphname = n;
layers = (
{
anchors = (
{
name = bottom;
position = "{201, 0}";
},
{
name = top;
position = "{201, 0}";
}
);
layerId = "EF4287FA-CE45-4A95-BCF9-A9D9094D729D";
name = Bold;
paths = (
{
closed = 1;
nodes = (
"25 600 LINE",
"121.094 600 LINE",
"280.969 56 LINE",
"280.969 600 LINE",
"377 600 LINE",
"377 -200 LINE",
"280.969 -200 LINE",
"120.688 344 LINE",
"121.031 -200 LINE",
"25 -200 LINE"
);
}
);
width = 402;
}
);
unicode = 006E;
userData = {
position = 281;
width = 64;
};
},
{
glyphname = o;
layers = (
{
anchors = (
{
name = top;
position = "{185, 0}";
}
);
layerId = "EF4287FA-CE45-4A95-BCF9-A9D9094D729D";
name = Bold;
paths = (
{
closed = 1;
nodes = (
"25 567 OFFCURVE",
"57 600 OFFCURVE",
"89 600 CURVE SMOOTH",
"281 600 LINE SMOOTH",
"313.025 600 OFFCURVE",
"345 567 OFFCURVE",
"345 535 CURVE SMOOTH",
"345 -135 LINE SMOOTH",
"345 -167 OFFCURVE",
"313 -200 OFFCURVE",
"281 -200 CURVE SMOOTH",
"89 -200 LINE SMOOTH",
"57 -200 OFFCURVE",
"25 -167 OFFCURVE",
"25 -135 CURVE SMOOTH",
"25 535 LINE SMOOTH"
);
},
{
closed = 1;
nodes = (
"150 504 LINE",
"121 504 OFFCURVE",
"121 504 OFFCURVE",
"121 475 CURVE SMOOTH",
"121 -75 LINE SMOOTH",
"121 -104 OFFCURVE",
"121 -104 OFFCURVE",
"150 -104 CURVE SMOOTH",
"220 -104 LINE SMOOTH",
"249 -104 OFFCURVE",
"249 -104 OFFCURVE",
"249 -75 CURVE SMOOTH",
"249 475 LINE SMOOTH",
"249 504 OFFCURVE",
"249 504 OFFCURVE",
"215 504 CURVE SMOOTH"
);
}
);
width = 370;
}
);
unicode = 006F;
userData = {
position = 233;
width = 64;
};
},
{
glyphname = p;
layers = (
{
layerId = "EF4287FA-CE45-4A95-BCF9-A9D9094D729D";
name = Bold;
paths = (
{
closed = 1;
nodes = (
"25 600 LINE",
"269 600 LINE SMOOTH",
"299 600 OFFCURVE",
"329 570 OFFCURVE",
"329 540 CURVE SMOOTH",
"329 216 LINE SMOOTH",
"329 184 OFFCURVE",
"297 152 OFFCURVE",
"265 152 CURVE SMOOTH",
"121 152 LINE",
"120.719 -200 LINE",
"25 -200 LINE"
);
},
{
closed = 1;
nodes = (
"121 504 OFFCURVE",
"121 504 OFFCURVE",
"121 474 CURVE SMOOTH",
"121 278 LINE SMOOTH",
"121 248 OFFCURVE",
"121 248 OFFCURVE",
"151 248 CURVE SMOOTH",
"203 248 LINE SMOOTH",
"233 248 OFFCURVE",
"233 248 OFFCURVE",
"233 278 CURVE SMOOTH",
"233 474 LINE SMOOTH",
"233 504 OFFCURVE",
"233 504 OFFCURVE",
"203 504 CURVE",
"151 504 LINE SMOOTH"
);
}
);
width = 354;
}
);
unicode = 0070;
userData = {
position = 233;
width = 64;
};
},
{
glyphname = q;
layers = (
{
layerId = "EF4287FA-CE45-4A95-BCF9-A9D9094D729D";
name = Bold;
paths = (
{
closed = 1;
nodes = (
"25 568 OFFCURVE",
"56.975 600 OFFCURVE",
"89 600 CURVE SMOOTH",
"265 600 LINE SMOOTH",
"297.025 600 OFFCURVE",
"329 568 OFFCURVE",
"329 536 CURVE SMOOTH",
"329 -136 LINE SMOOTH",
"329 -168 OFFCURVE",
"297.025 -200 OFFCURVE",
"265 -200 CURVE SMOOTH",
"89 -200 LINE SMOOTH",
"56.975 -200 OFFCURVE",
"25 -168 OFFCURVE",
"25 -136 CURVE SMOOTH",
"25 536 LINE SMOOTH"
);
},
{
closed = 1;
nodes = (
"121 504 OFFCURVE",
"121 504 OFFCURVE",
"121 484 CURVE",
"121 -84 LINE",
"121 -104 OFFCURVE",
"121 -104 OFFCURVE",
"141 -104 CURVE SMOOTH",
"213 -104 LINE",
"233 -104 OFFCURVE",
"233 -104 OFFCURVE",
"233 -84 CURVE SMOOTH",
"233 40 LINE",
"185 40 LINE",
"185 136.001 LINE",
"233 136.001 LINE",
"233 484 LINE",
"233 504 OFFCURVE",
"233 504 OFFCURVE",
"213 504 CURVE",
"141 504 LINE"
);
}
);
width = 354;
}
);
unicode = 0071;
userData = {
position = 233;
width = 64;
};
},
{
glyphname = r;
layers = (
{
anchors = (
{
name = bottom;
position = "{185, 0}";
},
{
name = top;
position = "{185, 0}";
}
);
layerId = "EF4287FA-CE45-4A95-BCF9-A9D9094D729D";
name = Bold;
paths = (
{
closed = 1;
nodes = (
"25 600 LINE",
"281.031 600 LINE SMOOTH",
"313.016 600 OFFCURVE",
"345 568 OFFCURVE",
"345 536 CURVE SMOOTH",
"344.688 248 LINE",
"280.719 184 LINE",
"344.906 152 LINE",
"344.594 -200 LINE",
"248.656 -200 LINE",
"249 132 LINE",
"249 152 OFFCURVE",
"249 152 OFFCURVE",
"229 152 CURVE SMOOTH",
"141 152 LINE SMOOTH",
"121 152 OFFCURVE",
"121 152 OFFCURVE",
"121 132 CURVE",
"120.719 -200 LINE",
"25 -200 LINE"
);
},
{
closed = 1;
nodes = (
"141 504 LINE",
"121 504 OFFCURVE",
"121 504 OFFCURVE",
"121 484 CURVE SMOOTH",
"121 268 LINE SMOOTH",
"121 248 OFFCURVE",
"121 248 OFFCURVE",
"141 248 CURVE SMOOTH",
"229 248 LINE",
"249 248 OFFCURVE",
"249 248 OFFCURVE",
"249 268 CURVE SMOOTH",
"249 484 LINE SMOOTH",
"249 504 OFFCURVE",
"249 504 OFFCURVE",
"229 504 CURVE"
);
}
);
width = 370;
}
);
unicode = 0072;
userData = {
position = 233;
width = 64;
};
},
{
glyphname = s;
layers = (
{
anchors = (
{
name = bottom;
position = "{169, 0}";
},
{
name = top;
position = "{169, 0}";
}
);
layerId = "EF4287FA-CE45-4A95-BCF9-A9D9094D729D";
name = Bold;
paths = (
{
closed = 1;
nodes = (
"25 566 OFFCURVE",
"55 600 OFFCURVE",
"88.938 600 CURVE SMOOTH",
"248.75 600 LINE SMOOTH",
"280.715 600 OFFCURVE",
"312.688 568 OFFCURVE",
"312.688 536 CURVE SMOOTH",
"313 440 LINE",
"217.094 440 LINE",
"217 484 LINE SMOOTH",
"217 504 OFFCURVE",
"217 504 OFFCURVE",
"197 504 CURVE SMOOTH",
"141 504 LINE SMOOTH",
"121 504 OFFCURVE",
"121 504 OFFCURVE",
"121 484 CURVE SMOOTH",
"121.219 376 LINE",
"121.219 280 LINE SMOOTH",
"121.219 248 OFFCURVE",
"121.226 248 OFFCURVE",
"153.188 248 CURVE SMOOTH",
"248.75 248 LINE SMOOTH",
"280.715 248 OFFCURVE",
"312.688 216 OFFCURVE",
"312.688 184 CURVE SMOOTH",
"312.688 -136 LINE SMOOTH",
"312.688 -168 OFFCURVE",
"280.715 -200 OFFCURVE",
"248.75 -200 CURVE SMOOTH",
"88.938 -200 LINE SMOOTH",
"56.973 -200 OFFCURVE",
"25 -168 OFFCURVE",
"25 -136 CURVE SMOOTH",
"25.313 -40 LINE",
"121.219 -40 LINE",
"121 -72 LINE SMOOTH",
"121 -104 OFFCURVE",
"121 -104 OFFCURVE",
"154.25 -104 CURVE SMOOTH",
"185.156 -104 LINE SMOOTH",
"217.121 -104 OFFCURVE",
"217 -104 OFFCURVE",
"217 -72 CURVE SMOOTH",
"217 132 LINE SMOOTH",
"217 152 OFFCURVE",
"217 152 OFFCURVE",
"197 152 CURVE SMOOTH",
"88.938 152 LINE SMOOTH",
"56.973 152 OFFCURVE",
"25 184 OFFCURVE",
"25 216 CURVE SMOOTH",
"25 536 LINE"
);
}
);
width = 338;
}
);
unicode = 0073;
userData = {
position = 217;
width = 64;
};
},
{
glyphname = t;
layers = (
{
anchors = (
{
name = bottom;
position = "{170, 0}";
},
{
name = center;
position = "{170, 0}";
}
);
layerId = "EF4287FA-CE45-4A95-BCF9-A9D9094D729D";
name = Bold;
paths = (
{
closed = 1;
nodes = (
"10 600 LINE",
"330 600 LINE",
"330 504 LINE",
"218 504 LINE",
"218 -200 LINE",
"122 -200 LINE",
"122 504 LINE",
"10 504 LINE"
);
}
);
width = 340;
}
);
unicode = 0074;
userData = {
position = 122;
width = 64;
};
},
{
glyphname = u;
layers = (
{
anchors = (
{
name = ogonek;
position = "{319, 10}";
},
{
name = top;
position = "{177, 0}";
}
);
layerId = "EF4287FA-CE45-4A95-BCF9-A9D9094D729D";
name = Bold;
paths = (
{
closed = 1;
nodes = (
"25 600 LINE",
"121 600 LINE",
"121 -72 LINE SMOOTH",
"121 -104 OFFCURVE",
"121 -104 OFFCURVE",
"153 -104 CURVE SMOOTH",
"201 -104 LINE SMOOTH",
"233 -104 OFFCURVE",
"233 -104 OFFCURVE",
"233 -72 CURVE SMOOTH",
"233 600 LINE",
"329 600 LINE",
"329 -136 LINE SMOOTH",
"329 -168 OFFCURVE",
"297 -200 OFFCURVE",
"265 -200 CURVE SMOOTH",
"89 -200 LINE SMOOTH",
"57 -200 OFFCURVE",
"25 -168 OFFCURVE",
"25 -136 CURVE SMOOTH"
);
}
);
width = 354;
}
);
unicode = 0075;
userData = {
position = 217;
width = 64;
};
},
{
glyphname = v;
layers = (
{
layerId = "EF4287FA-CE45-4A95-BCF9-A9D9094D729D";
name = Bold;
paths = (
{
closed = 1;
nodes = (
"20 600 LINE",
"116 600 LINE",
"212 0 LINE",
"308 600 LINE",
"404 600 LINE",
"260 -200 LINE",
"164 -200 LINE"
);
}
);
width = 424;
}
);
leftKerningGroup = V;
rightKerningGroup = V;
unicode = 0076;
userData = {
position = 580;
width = 20;
};
},
{
glyphname = w;
layers = (
{
anchors = (
{
name = top;
position = "{201, 0}";
}
);
layerId = "EF4287FA-CE45-4A95-BCF9-A9D9094D729D";
name = Bold;
paths = (
{
closed = 1;
nodes = (
"25 600 LINE",
"121 600 LINE",
"121 120 LINE",
"201 424 LINE",
"281 120 LINE",
"281 600 LINE",
"377 600 LINE",
"377 -200 LINE",
"313 -200 LINE",
"201.085 168 LINE",
"89 -200 LINE",
"25 -200 LINE"
);
}
);
width = 402;
}
);
unicode = 0077;
userData = {
position = 297;
width = 48;
};
},
{
glyphname = x;
layers = (
{
layerId = "EF4287FA-CE45-4A95-BCF9-A9D9094D729D";
name = Bold;
paths = (
{
closed = 1;
nodes = (
"25 600 LINE",
"121 600 LINE",
"201 264 LINE",
"281 600 LINE",
"377 600 LINE",
"281 184 LINE",
"377 -200 LINE",
"281 -200 LINE",
"201 88 LINE",
"121 -200 LINE",
"25 -200 LINE",
"121 184 LINE"
);
}
);
width = 402;
}
);
unicode = 0078;
userData = {
position = 25;
width = 64;
};
},
{
glyphname = y;
layers = (
{
anchors = (
{
name = top;
position = "{192, 0}";
}
);
layerId = "EF4287FA-CE45-4A95-BCF9-A9D9094D729D";
name = Bold;
paths = (
{
closed = 1;
nodes = (
"0 600 LINE",
"96 600 LINE",
"192 248 LINE",
"288 600 LINE",
"384 600 LINE",
"240 120 LINE",
"240 -200 LINE",
"144 -200 LINE",
"144 120 LINE"
);
}
);
width = 384;
}
);
unicode = 0079;
userData = {
position = 288;
width = 64;
};
},
{
glyphname = z;
layers = (
{
anchors = (
{
name = top;
position = "{169, 0}";
}
);
layerId = "EF4287FA-CE45-4A95-BCF9-A9D9094D729D";
name = Bold;
paths = (
{
closed = 1;
nodes = (
"25 600 LINE",
"313 600 LINE",
"144 -104 LINE",
"313 -104 LINE",
"313 -200 LINE",
"25 -200 LINE",
"194 504 LINE",
"25 504 LINE"
);
}
);
width = 338;
}
);
unicode = 007A;
userData = {
position = 25;
width = 256;
};
},
{
glyphname = zero;
layers = (
{
layerId = "EF4287FA-CE45-4A95-BCF9-A9D9094D729D";
name = Bold;
paths = (
{
closed = 1;
nodes = (
"25 568 OFFCURVE",
"56.9746 600 OFFCURVE",
"89 600 CURVE SMOOTH",
"233 600 LINE SMOOTH",
"265.025 600 OFFCURVE",
"297 568 OFFCURVE",
"297 536 CURVE SMOOTH",
"297 -136 LINE SMOOTH",
"297 -168 OFFCURVE",
"265.025 -200 OFFCURVE",
"233 -200 CURVE SMOOTH",
"89 -200 LINE SMOOTH",
"56.9746 -200 OFFCURVE",
"25 -168 OFFCURVE",
"25 -136 CURVE SMOOTH",
"25 536 LINE SMOOTH"
);
},
{
closed = 1;
nodes = (
"141 504 LINE SMOOTH",
"121 504 OFFCURVE",
"121 504 OFFCURVE",
"121 484 CURVE SMOOTH",
"121 -84 LINE SMOOTH",
"121 -104 OFFCURVE",
"121 -104 OFFCURVE",
"141 -104 CURVE SMOOTH",
"181 -104 LINE SMOOTH",
"201 -104 OFFCURVE",
"201 -104 OFFCURVE",
"201 -84 CURVE SMOOTH",
"201 484 LINE SMOOTH",
"201 504 OFFCURVE",
"201 504 OFFCURVE",
"181 504 CURVE SMOOTH"
);
}
);
width = 322;
}
);
unicode = 0030;
userData = {
position = 201;
width = 64;
};
},
{
glyphname = one;
layers = (
{
layerId = "EF4287FA-CE45-4A95-BCF9-A9D9094D729D";
name = Bold;
paths = (
{
closed = 1;
nodes = (
"25 600 LINE",
"73 600 LINE",
"169 600 LINE",
"169 -200 LINE",
"73 -200 LINE",
"73 504 LINE",
"25 504 LINE"
);
}
);
width = 194;
}
);
unicode = 0031;
userData = {
position = 73;
width = 64;
};
},
{
glyphname = two;
layers = (
{
layerId = "EF4287FA-CE45-4A95-BCF9-A9D9094D729D";
name = Bold;
paths = (
{
closed = 1;
nodes = (
"25 600 LINE",
"201.094 600 LINE SMOOTH",
"233.051 600 OFFCURVE",
"265 568 OFFCURVE",
"265 536 CURVE SMOOTH",
"265 208 LINE SMOOTH",
"265 176 OFFCURVE",
"233.176 152 OFFCURVE",
"201.219 152 CURVE SMOOTH",
"153.031 152 LINE SMOOTH",
"121.074 152 OFFCURVE",
"121 152 OFFCURVE",
"121.031 120 CURVE SMOOTH",
"121 -74 LINE SMOOTH",
"121 -104 OFFCURVE",
"121 -104 OFFCURVE",
"151 -104 CURVE SMOOTH",
"265 -104 LINE",
"264.75 -200 LINE",
"89.0312 -200 LINE SMOOTH",
"57.0742 -200 OFFCURVE",
"25.3457 -160 OFFCURVE",
"25.3125 -128 CURVE SMOOTH",
"25 184 LINE SMOOTH",
"25 216 OFFCURVE",
"57 248 OFFCURVE",
"88.9062 248 CURVE SMOOTH",
"139 248 LINE SMOOTH",
"169 248 OFFCURVE",
"169 248 OFFCURVE",
"169 278 CURVE",
"169 474 LINE",
"169 504 OFFCURVE",
"169 504 OFFCURVE",
"139 504 CURVE SMOOTH",
"25 504 LINE"
);
}
);
width = 290;
}
);
unicode = 0032;
userData = {
position = 169;
width = 64;
};
},
{
glyphname = three;
layers = (
{
layerId = "EF4287FA-CE45-4A95-BCF9-A9D9094D729D";
name = Bold;
paths = (
{
closed = 1;
nodes = (
"25 600 LINE",
"201 600 LINE SMOOTH",
"233 600 OFFCURVE",
"265 568 OFFCURVE",
"265 536 CURVE SMOOTH",
"265 248 LINE",
"201 184 LINE",
"265 152 LINE",
"265 -136 LINE SMOOTH",
"265 -168 OFFCURVE",
"233 -200 OFFCURVE",
"201 -200 CURVE SMOOTH",
"25 -200 LINE",
"25 -104 LINE",
"169 -104 LINE",
"169 152 LINE",
"25 152 LINE",
"25 248 LINE",
"169 248 LINE",
"169 504 LINE",
"25 504 LINE"
);
}
);
width = 290;
}
);
unicode = 0033;
userData = {
position = 169;
width = 64;
};
},
{
glyphname = four;
layers = (
{
layerId = "EF4287FA-CE45-4A95-BCF9-A9D9094D729D";
name = Bold;
paths = (
{
closed = 1;
nodes = (
"25 600 LINE",
"121 600 LINE",
"121 248 LINE",
"201 248 LINE",
"201 600 LINE",
"297 600 LINE",
"297 -200 LINE",
"201 -200 LINE",
"201 152 LINE",
"25 152 LINE"
);
}
);
width = 322;
}
);
unicode = 0034;
userData = {
position = 201;
width = 64;
};
},
{
glyphname = five;
layers = (
{
layerId = "EF4287FA-CE45-4A95-BCF9-A9D9094D729D";
name = Bold;
paths = (
{
closed = 1;
nodes = (
"25 600 LINE",
"265 600 LINE",
"265 504 LINE",
"121.281 504 LINE",
"121.281 376 LINE",
"121.281 280 LINE SMOOTH",
"121.281 248 OFFCURVE",
"121.288 248 OFFCURVE",
"153.25 248 CURVE SMOOTH",
"200.812 248 LINE SMOOTH",
"232.777 248 OFFCURVE",
"264.75 216 OFFCURVE",
"264.75 184 CURVE SMOOTH",
"264.75 -136 LINE SMOOTH",
"264.75 -168 OFFCURVE",
"232.777 -200 OFFCURVE",
"200.812 -200 CURVE SMOOTH",
"25 -200 LINE",
"25 -104 LINE",
"149 -104 LINE SMOOTH",
"181 -104 OFFCURVE",
"169 -104 OFFCURVE",
"169 -84 CURVE SMOOTH",
"169 132 LINE SMOOTH",
"169 152 OFFCURVE",
"169 152 OFFCURVE",
"149 152 CURVE",
"89 152 LINE SMOOTH",
"57 152 OFFCURVE",
"25 184 OFFCURVE",
"25 216 CURVE SMOOTH"
);
}
);
width = 290;
}
);
unicode = 0035;
userData = {
position = 169;
width = 64;
};
},
{
glyphname = six;
layers = (
{
layerId = "EF4287FA-CE45-4A95-BCF9-A9D9094D729D";
name = Bold;
paths = (
{
closed = 1;
nodes = (
"297 -168 OFFCURVE",
"265 -200 OFFCURVE",
"233 -200 CURVE SMOOTH",
"89 -200 LINE SMOOTH",
"57 -200 OFFCURVE",
"25 -168 OFFCURVE",
"25 -136 CURVE SMOOTH",
"25 600 LINE",
"121 600 LINE",
"121 248 LINE",
"233 248 LINE SMOOTH",
"265 248 OFFCURVE",
"297 216 OFFCURVE",
"297 184 CURVE SMOOTH",
"297 -136 LINE SMOOTH"
);
},
{
closed = 1;
nodes = (
"201 -104 OFFCURVE",
"201 -104 OFFCURVE",
"201 -84 CURVE",
"201 132 LINE",
"201 152 OFFCURVE",
"201 152 OFFCURVE",
"181 152 CURVE SMOOTH",
"141 152 LINE SMOOTH",
"121 152 OFFCURVE",
"121 152 OFFCURVE",
"121 132 CURVE SMOOTH",
"121 -84 LINE SMOOTH",
"121 -104 OFFCURVE",
"121 -104 OFFCURVE",
"141 -104 CURVE",
"181 -104 LINE"
);
}
);
width = 322;
}
);
unicode = 0036;
userData = {
position = 201;
width = 64;
};
},
{
glyphname = seven;
layers = (
{
layerId = "EF4287FA-CE45-4A95-BCF9-A9D9094D729D";
name = Bold;
paths = (
{
closed = 1;
nodes = (
"0 600 LINE",
"267 600 LINE",
"267 -200 LINE",
"172 -200 LINE",
"172 506 LINE",
"0 506 LINE"
);
}
);
width = 292;
}
);
unicode = 0037;
userData = {
position = 204;
width = 63;
};
},
{
glyphname = eight;
layers = (
{
layerId = "EF4287FA-CE45-4A95-BCF9-A9D9094D729D";
name = Bold;
paths = (
{
closed = 1;
nodes = (
"25.8877 567.987 OFFCURVE",
"57 600 OFFCURVE",
"89 600 CURVE SMOOTH",
"233 600 LINE SMOOTH",
"264.993 600 OFFCURVE",
"297 568 OFFCURVE",
"297 536 CURVE SMOOTH",
"296.5 248 LINE",
"233 184 LINE",
"297 152 LINE",
"297 -136 LINE SMOOTH",
"297 -168 OFFCURVE",
"264.993 -200 OFFCURVE",
"233 -200 CURVE SMOOTH",
"89 -200 LINE SMOOTH",
"57 -200 OFFCURVE",
"25 -168 OFFCURVE",
"25 -136 CURVE SMOOTH",
"25 152 LINE",
"89 184 LINE",
"25 248 LINE",
"25 536 LINE SMOOTH"
);
},
{
closed = 1;
nodes = (
"141 504 LINE SMOOTH",
"121 504 OFFCURVE",
"121 504 OFFCURVE",
"121 484 CURVE SMOOTH",
"121 268 LINE SMOOTH",
"121 248 OFFCURVE",
"121 248 OFFCURVE",
"141 248 CURVE SMOOTH",
"181 248 LINE SMOOTH",
"201 248 OFFCURVE",
"201 248 OFFCURVE",
"201 268 CURVE SMOOTH",
"201 484 LINE SMOOTH",
"201 504 OFFCURVE",
"201 504 OFFCURVE",
"181 504 CURVE SMOOTH"
);
},
{
closed = 1;
nodes = (
"141 152 LINE SMOOTH",
"121 152 OFFCURVE",
"121 152 OFFCURVE",
"121 132 CURVE SMOOTH",
"121 -84 LINE SMOOTH",
"121 -104 OFFCURVE",
"121 -104 OFFCURVE",
"141 -104 CURVE SMOOTH",
"181 -104 LINE SMOOTH",
"201 -104 OFFCURVE",
"201 -104 OFFCURVE",
"201 -84 CURVE SMOOTH",
"201 132 LINE SMOOTH",
"201 152 OFFCURVE",
"201 152 OFFCURVE",
"181 152 CURVE SMOOTH"
);
}
);
width = 322;
}
);
unicode = 0038;
userData = {
position = 217;
width = 64;
};
},
{
glyphname = nine;
layers = (
{
layerId = "EF4287FA-CE45-4A95-BCF9-A9D9094D729D";
name = Bold;
paths = (
{
closed = 1;
nodes = (
"25 568 OFFCURVE",
"56.9844 600 OFFCURVE",
"88.9688 600 CURVE SMOOTH",
"233 600 LINE SMOOTH",
"265 600 OFFCURVE",
"297 568 OFFCURVE",
"297 536 CURVE SMOOTH",
"297 -200 LINE",
"201.281 -200 LINE",
"201 152 LINE",
"89 152 LINE SMOOTH",
"57 152 OFFCURVE",
"25 184 OFFCURVE",
"25 216 CURVE SMOOTH",
"25 536 LINE SMOOTH"
);
},
{
closed = 1;
nodes = (
"121 504 OFFCURVE",
"121 504 OFFCURVE",
"121 484 CURVE",
"121 268 LINE",
"121 248 OFFCURVE",
"121 248 OFFCURVE",
"141 248 CURVE SMOOTH",
"181 248 LINE SMOOTH",
"201 248 OFFCURVE",
"201 248 OFFCURVE",
"201 268 CURVE SMOOTH",
"201 484 LINE SMOOTH",
"201 504 OFFCURVE",
"201 504 OFFCURVE",
"181 504 CURVE",
"141 504 LINE"
);
}
);
width = 322;
}
);
unicode = 0039;
userData = {
position = 201;
width = 64;
};
},
{
glyphname = asterisk;
layers = (
{
layerId = "EF4287FA-CE45-4A95-BCF9-A9D9094D729D";
name = Bold;
paths = (
{
closed = 1;
nodes = (
"105 600 LINE",
"170 600 LINE",
"169 536 LINE",
"217 568 LINE",
"249 520 LINE",
"201 488 LINE",
"249 456 LINE",
"217 408 LINE",
"169 440 LINE",
"170 376 LINE",
"105 376 LINE",
"105 440 LINE",
"57 408 LINE",
"25 456 LINE",
"73 488 LINE",
"25 520 LINE",
"57 568 LINE",
"105 536 LINE"
);
}
);
width = 274;
}
);
unicode = 002A;
userData = {
position = 105;
width = 33;
};
},
{
glyphname = backslash;
layers = (
{
layerId = "EF4287FA-CE45-4A95-BCF9-A9D9094D729D";
name = Bold;
paths = (
{
closed = 1;
nodes = (
"25 600 LINE",
"121 600 LINE",
"297 -200 LINE",
"201 -200 LINE"
);
}
);
width = 322;
}
);
unicode = 005C;
userData = {
position = 25;
width = 239;
};
},
{
glyphname = colon;
layers = (
{
layerId = "EF4287FA-CE45-4A95-BCF9-A9D9094D729D";
name = Bold;
paths = (
{
closed = 1;
nodes = (
"25 440 LINE",
"121 440 LINE",
"121 264 LINE",
"25 264 LINE"
);
},
{
closed = 1;
nodes = (
"25 136 LINE",
"121 136 LINE",
"121 -40 LINE",
"25 -40 LINE"
);
}
);
width = 146;
}
);
unicode = 003A;
userData = {
position = 25;
width = 64;
};
},
{
glyphname = comma;
layers = (
{
layerId = "EF4287FA-CE45-4A95-BCF9-A9D9094D729D";
name = Bold;
paths = (
{
closed = 1;
nodes = (
"92 -124 LINE",
"169 -200 LINE",
"93 -328 LINE",
"16 -251 LINE"
);
}
);
width = 194;
}
);
unicode = 002C;
userData = {
position = 25;
width = 96;
};
},
{
glyphname = exclam;
layers = (
{
layerId = "EF4287FA-CE45-4A95-BCF9-A9D9094D729D";
name = Bold;
paths = (
{
closed = 1;
nodes = (
"25 600 LINE",
"121 600 LINE",
"121 -56 LINE",
"25 -56 LINE"
);
},
{
closed = 1;
nodes = (
"25 -104 LINE",
"121 -104 LINE",
"121 -200 LINE",
"25 -200 LINE"
);
}
);
width = 146;
}
);
unicode = 0021;
userData = {
position = 25;
width = 64;
};
},
{
glyphname = numbersign;
layers = (
{
layerId = "EF4287FA-CE45-4A95-BCF9-A9D9094D729D";
name = Bold;
paths = (
{
closed = 1;
nodes = (
"73 600 LINE",
"169 600 LINE",
"169 344 LINE",
"249 344 LINE",
"249 600 LINE",
"345 600 LINE",
"345 344 LINE",
"393 344 LINE",
"393 248 LINE",
"345 248 LINE",
"345 152 LINE",
"393 152 LINE",
"393 56 LINE",
"345 56 LINE",
"345 -200 LINE",
"249 -200 LINE",
"249 56 LINE",
"169 56 LINE",
"169 -200 LINE",
"73 -200 LINE",
"73 56 LINE",
"25 56 LINE",
"25 152 LINE",
"73 152 LINE",
"73 248 LINE",
"25 248 LINE",
"25 344 LINE",
"73 344 LINE"
);
},
{
closed = 1;
nodes = (
"169 248 LINE",
"169 152 LINE",
"249 152 LINE",
"249 248 LINE"
);
}
);
width = 418;
}
);
unicode = 0023;
userData = {
position = 265;
width = 64;
};
},
{
glyphname = period;
layers = (
{
layerId = "EF4287FA-CE45-4A95-BCF9-A9D9094D729D";
name = Bold;
paths = (
{
closed = 1;
nodes = (
"25 -104 LINE",
"121 -104 LINE",
"121 -200 LINE",
"25 -200 LINE"
);
}
);
width = 146;
}
);
unicode = 002E;
userData = {
position = 25;
width = 64;
};
},
{
glyphname = question;
layers = (
{
layerId = "EF4287FA-CE45-4A95-BCF9-A9D9094D729D";
name = Bold;
paths = (
{
closed = 1;
nodes = (
"25 600 LINE",
"217 600 LINE SMOOTH",
"248.965 600 OFFCURVE",
"281 568 OFFCURVE",
"281 536 CURVE SMOOTH",
"281 208 LINE SMOOTH",
"281 176 OFFCURVE",
"248.965 152 OFFCURVE",
"217 152 CURVE SMOOTH",
"153 152 LINE SMOOTH",
"121.035 152 OFFCURVE",
"121.047 152 OFFCURVE",
"121 120 CURVE SMOOTH",
"121 -56 LINE",
"25 -56 LINE",
"25 182 LINE SMOOTH",
"25 216 OFFCURVE",
"57 248 OFFCURVE",
"89 248 CURVE SMOOTH",
"165 248 LINE SMOOTH",
"185 248 OFFCURVE",
"185 248 OFFCURVE",
"185 268 CURVE SMOOTH",
"185 484 LINE SMOOTH",
"185 504 OFFCURVE",
"185 504 OFFCURVE",
"165 504 CURVE SMOOTH",
"25 504 LINE"
);
},
{
closed = 1;
nodes = (
"25 -104 LINE",
"121 -104 LINE",
"121 -200 LINE",
"25 -200 LINE"
);
}
);
width = 306;
}
);
unicode = 003F;
userData = {
position = 185;
width = 64;
};
},
{
glyphname = quotedbl;
layers = (
{
layerId = "EF4287FA-CE45-4A95-BCF9-A9D9094D729D";
name = Bold;
paths = (
{
closed = 1;
nodes = (
"25 600 LINE",
"134 600 LINE",
"134 400 LINE",
"25 400 LINE"
);
},
{
closed = 1;
nodes = (
"188 600 LINE",
"297 600 LINE",
"297 400 LINE",
"188 400 LINE"
);
}
);
width = 322;
}
);
unicode = 0022;
userData = {
position = 137;
width = 64;
};
},
{
glyphname = quotesingle;
layers = (
{
layerId = "EF4287FA-CE45-4A95-BCF9-A9D9094D729D";
name = Bold;
paths = (
{
closed = 1;
nodes = (
"25 600 LINE",
"134 600 LINE",
"134 400 LINE",
"25 400 LINE"
);
}
);
width = 158;
}
);
unicode = 0027;
userData = {
position = 25;
width = 64;
};
},
{
glyphname = semicolon;
layers = (
{
layerId = "EF4287FA-CE45-4A95-BCF9-A9D9094D729D";
name = Bold;
paths = (
{
closed = 1;
nodes = (
"25 440 LINE",
"121 440 LINE",
"121 264 LINE",
"25 264 LINE"
);
},
{
closed = 1;
nodes = (
"25 136 LINE",
"121 136 LINE",
"121 -200 LINE",
"25 -200 LINE"
);
}
);
width = 146;
}
);
unicode = 003B;
userData = {
position = 25;
width = 64;
};
},
{
glyphname = slash;
layers = (
{
layerId = "EF4287FA-CE45-4A95-BCF9-A9D9094D729D";
name = Bold;
paths = (
{
closed = 1;
nodes = (
"201 600 LINE",
"297 600 LINE",
"121 -200 LINE",
"25 -200 LINE"
);
}
);
width = 322;
}
);
unicode = 002F;
userData = {
position = 25;
width = 239;
};
},
{
glyphname = underscore;
layers = (
{
layerId = "EF4287FA-CE45-4A95-BCF9-A9D9094D729D";
name = Bold;
paths = (
{
closed = 1;
nodes = (
"25 -104 LINE",
"425 -104 LINE",
"425 -200 LINE",
"25 -200 LINE"
);
}
);
width = 450;
}
);
unicode = 005F;
userData = {
position = "-200";
width = 64;
};
},
{
glyphname = braceleft;
layers = (
{
layerId = "EF4287FA-CE45-4A95-BCF9-A9D9094D729D";
name = Bold;
paths = (
{
closed = 1;
nodes = (
"25 567 OFFCURVE",
"57 600 OFFCURVE",
"89 600 CURVE SMOOTH",
"217 600 LINE",
"217 504 LINE",
"121 504 LINE",
"121 -104 LINE",
"217 -104 LINE",
"217 -200 LINE",
"90 -200 LINE",
"55 -200 OFFCURVE",
"25 -168 OFFCURVE",
"25 -136 CURVE SMOOTH",
"25 143 LINE",
"89 184 LINE",
"25 227 LINE",
"25 538 LINE SMOOTH"
);
}
);
width = 242;
}
);
unicode = 007B;
userData = {
position = 25;
width = 64;
};
},
{
glyphname = braceright;
layers = (
{
layerId = "EF4287FA-CE45-4A95-BCF9-A9D9094D729D";
name = Bold;
paths = (
{
closed = 1;
nodes = (
"217 227 LINE",
"153 184 LINE",
"217 143 LINE",
"217 -136 LINE SMOOTH",
"217 -168 OFFCURVE",
"187 -200 OFFCURVE",
"152 -200 CURVE",
"25 -200 LINE",
"25 -104 LINE",
"121 -104 LINE",
"121 504 LINE",
"25 504 LINE",
"25 600 LINE",
"153 600 LINE SMOOTH",
"185 600 OFFCURVE",
"217 567 OFFCURVE",
"217 538 CURVE SMOOTH"
);
}
);
width = 242;
}
);
unicode = 007D;
userData = {
position = 153;
width = 64;
};
},
{
glyphname = bracketleft;
layers = (
{
layerId = "EF4287FA-CE45-4A95-BCF9-A9D9094D729D";
name = Bold;
paths = (
{
closed = 1;
nodes = (
"25 600 LINE",
"217 600 LINE",
"217 504 LINE",
"121 504 LINE",
"121 -104 LINE",
"217 -104 LINE",
"217 -200 LINE",
"25 -200 LINE"
);
}
);
width = 242;
}
);
unicode = 005B;
userData = {
position = 25;
width = 64;
};
},
{
glyphname = bracketright;
layers = (
{
layerId = "EF4287FA-CE45-4A95-BCF9-A9D9094D729D";
name = Bold;
paths = (
{
closed = 1;
nodes = (
"25 -200 LINE",
"25 -104 LINE",
"121 -104 LINE",
"121 504 LINE",
"25 504 LINE",
"25 600 LINE",
"217 600 LINE",
"217 -200 LINE"
);
}
);
width = 241;
}
);
unicode = 005D;
userData = {
position = 105;
width = 64;
};
},
{
glyphname = parenleft;
layers = (
{
layerId = "EF4287FA-CE45-4A95-BCF9-A9D9094D729D";
name = Bold;
paths = (
{
closed = 1;
nodes = (
"25 568.002 OFFCURVE",
"57 600 OFFCURVE",
"89 600 CURVE SMOOTH",
"217.001 600 LINE",
"217.001 504 LINE",
"141 504 LINE",
"121 504 OFFCURVE",
"121 504 OFFCURVE",
"121 484 CURVE SMOOTH",
"121 -84 LINE SMOOTH",
"121 -104 OFFCURVE",
"121 -104 OFFCURVE",
"141 -104 CURVE SMOOTH",
"217 -104 LINE",
"217 -200 LINE",
"89 -200 LINE SMOOTH",
"57 -200 OFFCURVE",
"25 -168 OFFCURVE",
"25 -136 CURVE SMOOTH",
"25 539.003 LINE SMOOTH"
);
}
);
width = 242;
}
);
unicode = 0028;
userData = {
position = 25;
width = 64;
};
},
{
glyphname = parenright;
layers = (
{
layerId = "EF4287FA-CE45-4A95-BCF9-A9D9094D729D";
name = Bold;
paths = (
{
closed = 1;
nodes = (
"217 -136 LINE SMOOTH",
"217 -168 OFFCURVE",
"185 -200 OFFCURVE",
"153 -200 CURVE SMOOTH",
"25 -200 LINE",
"25 -104 LINE",
"101 -104 LINE SMOOTH",
"121 -104 OFFCURVE",
"121 -104 OFFCURVE",
"121 -84 CURVE SMOOTH",
"121 484 LINE SMOOTH",
"121 504 OFFCURVE",
"121 504 OFFCURVE",
"101 504 CURVE",
"25 504 LINE",
"25 600 LINE",
"153 600 LINE SMOOTH",
"185 600 OFFCURVE",
"217 568 OFFCURVE",
"217 539 CURVE SMOOTH"
);
}
);
width = 242;
}
);
unicode = 0029;
userData = {
position = 121;
width = 64;
};
},
{
glyphname = hyphen;
layers = (
{
layerId = "EF4287FA-CE45-4A95-BCF9-A9D9094D729D";
name = Bold;
paths = (
{
closed = 1;
nodes = (
"25 252 LINE",
"297 252 LINE",
"297 156 LINE",
"25 156 LINE"
);
}
);
width = 322;
}
);
unicode = 002D;
userData = {
position = 25;
width = 272;
};
},
{
glyphname = dollar;
layers = (
{
layerId = "EF4287FA-CE45-4A95-BCF9-A9D9094D729D";
name = Bold;
paths = (
{
closed = 1;
nodes = (
"121 600 LINE",
"217 600 LINE",
"217 520 LINE",
"249 520 LINE",
"280 520 OFFCURVE",
"313 488 OFFCURVE",
"313 456 CURVE SMOOTH",
"313 360 LINE",
"217 360 LINE",
"217 395 LINE SMOOTH",
"217 424 OFFCURVE",
"217 424 OFFCURVE",
"185 424 CURVE SMOOTH",
"153 424 LINE SMOOTH",
"121 424 OFFCURVE",
"121 424 OFFCURVE",
"121 392 CURVE SMOOTH",
"121 280 LINE SMOOTH",
"121 248 OFFCURVE",
"121 248 OFFCURVE",
"153 248 CURVE SMOOTH",
"249 248 LINE SMOOTH",
"281 248 OFFCURVE",
"313 216 OFFCURVE",
"313 184 CURVE SMOOTH",
"313 -56 LINE SMOOTH",
"313 -88 OFFCURVE",
"281 -120 OFFCURVE",
"249 -120 CURVE SMOOTH",
"217 -120 LINE",
"217 -200 LINE",
"121 -200 LINE",
"121 -120 LINE",
"89 -120 LINE SMOOTH",
"57 -120 OFFCURVE",
"25 -88 OFFCURVE",
"25 -56 CURVE SMOOTH",
"25 40 LINE",
"121 40 LINE",
"121 8 LINE SMOOTH",
"121 -24 OFFCURVE",
"121 -24 OFFCURVE",
"151 -24 CURVE SMOOTH",
"185 -24 LINE SMOOTH",
"217 -24 OFFCURVE",
"217 -24 OFFCURVE",
"217 8 CURVE SMOOTH",
"217 120 LINE SMOOTH",
"217 152 OFFCURVE",
"217 152 OFFCURVE",
"185 152 CURVE SMOOTH",
"89 152 LINE SMOOTH",
"57 152 OFFCURVE",
"25 184 OFFCURVE",
"25 216 CURVE SMOOTH",
"25 456 LINE SMOOTH",
"25 488 OFFCURVE",
"57 520 OFFCURVE",
"89 520 CURVE SMOOTH",
"121 520 LINE"
);
}
);
width = 338;
}
);
unicode = 0024;
userData = {
position = 185;
width = 64;
};
},
{
glyphname = asciitilde;
layers = (
{
layerId = "EF4287FA-CE45-4A95-BCF9-A9D9094D729D";
name = Bold;
paths = (
{
closed = 1;
nodes = (
"147 278 LINE",
"255 237 LINE",
"377 264 LINE",
"377 183 LINE",
"255 156 LINE",
"147 197 LINE",
"25 156 LINE",
"25 237 LINE"
);
}
);
width = 402;
}
);
unicode = 007E;
userData = {
position = 165;
width = 105;
};
},
{
glyphname = equal;
layers = (
{
layerId = "EF4287FA-CE45-4A95-BCF9-A9D9094D729D";
name = Bold;
paths = (
{
closed = 1;
nodes = (
"25 348 LINE",
"297 348 LINE",
"297 252 LINE",
"25 252 LINE"
);
},
{
closed = 1;
nodes = (
"25 156 LINE",
"297 156 LINE",
"297 60 LINE",
"25 60 LINE"
);
}
);
width = 322;
}
);
unicode = 003D;
userData = {
position = 25;
width = 272;
};
},
{
glyphname = greater;
layers = (
{
layerId = "EF4287FA-CE45-4A95-BCF9-A9D9094D729D";
name = Bold;
paths = (
{
closed = 1;
nodes = (
"25 583 LINE",
"345 247 LINE",
"345 151 LINE",
"25 -185 LINE",
"25 -41 LINE",
"265 199 LINE",
"25 439 LINE"
);
}
);
width = 370;
}
);
unicode = 003E;
userData = {
position = 25;
width = 288;
};
},
{
glyphname = less;
layers = (
{
layerId = "EF4287FA-CE45-4A95-BCF9-A9D9094D729D";
name = Bold;
paths = (
{
closed = 1;
nodes = (
"345 582 LINE",
"345 438 LINE",
"105 198 LINE",
"345 -42 LINE",
"345 -186 LINE",
"25 150 LINE",
"25 246 LINE"
);
}
);
width = 370;
}
);
unicode = 003C;
userData = {
position = 25;
width = 288;
};
},
{
glyphname = percent;
layers = (
{
layerId = "EF4287FA-CE45-4A95-BCF9-A9D9094D729D";
name = Bold;
paths = (
{
closed = 1;
nodes = (
"25 600 LINE",
"121 600 LINE",
"121 424 LINE",
"25 424 LINE"
);
},
{
closed = 1;
nodes = (
"201 600 LINE",
"297 600 LINE",
"121 -200 LINE",
"25 -200 LINE"
);
},
{
closed = 1;
nodes = (
"201 -24 LINE",
"297 -24 LINE",
"297 -200 LINE",
"201 -200 LINE"
);
}
);
width = 322;
}
);
unicode = 0025;
userData = {
position = 185;
width = 64;
};
},
{
glyphname = plus;
layers = (
{
layerId = "EF4287FA-CE45-4A95-BCF9-A9D9094D729D";
name = Bold;
paths = (
{
closed = 1;
nodes = (
"157 380 LINE",
"245 380 LINE",
"245 248 LINE",
"377 248 LINE",
"377 160 LINE",
"245 160 LINE",
"245 28 LINE",
"157 28 LINE",
"157 160 LINE",
"25 160 LINE",
"25 248 LINE",
"157 248 LINE"
);
}
);
width = 402;
}
);
unicode = 002B;
userData = {
position = 169;
width = 64;
};
},
{
glyphname = ampersand;
layers = (
{
layerId = "EF4287FA-CE45-4A95-BCF9-A9D9094D729D";
name = Bold;
paths = (
{
closed = 1;
nodes = (
"25 568 OFFCURVE",
"57 600 OFFCURVE",
"89 600 CURVE SMOOTH",
"265 600 LINE",
"265 504 LINE",
"152 504 LINE SMOOTH",
"121 504 OFFCURVE",
"121 504 OFFCURVE",
"121 472 CURVE SMOOTH",
"121 248 LINE",
"217 248 LINE",
"217 296 LINE",
"313 296 LINE",
"313 248 LINE",
"361 248 LINE",
"361 152 LINE",
"313 152 LINE",
"313 -136 LINE SMOOTH",
"313 -168 OFFCURVE",
"281 -200 OFFCURVE",
"249 -200 CURVE SMOOTH",
"89 -200 LINE SMOOTH",
"57 -200 OFFCURVE",
"25 -168 OFFCURVE",
"25 -136 CURVE SMOOTH",
"25 152 LINE",
"89 184 LINE",
"25 248 LINE",
"25 536 LINE SMOOTH"
);
},
{
closed = 1;
nodes = (
"121 152 LINE",
"121 -70 LINE SMOOTH",
"121 -104 OFFCURVE",
"121 -104 OFFCURVE",
"153 -104 CURVE SMOOTH",
"185 -104 LINE SMOOTH",
"217 -104 OFFCURVE",
"217 -104 OFFCURVE",
"217 -72 CURVE SMOOTH",
"217 152 LINE"
);
}
);
width = 386;
}
);
unicode = 0026;
userData = {
position = 201;
width = 64;
};
},
{
glyphname = asciicircum;
layers = (
{
layerId = "EF4287FA-CE45-4A95-BCF9-A9D9094D729D";
name = Bold;
paths = (
{
closed = 1;
nodes = (
"160 600 LINE",
"215 600 LINE",
"350 388 LINE",
"275 388 LINE",
"187 530 LINE",
"100 388 LINE",
"25 388 LINE"
);
}
);
width = 375;
}
);
unicode = 005E;
userData = {
position = 388;
width = 212;
};
},
{
glyphname = at;
layers = (
{
layerId = "EF4287FA-CE45-4A95-BCF9-A9D9094D729D";
name = Bold;
paths = (
{
closed = 1;
nodes = (
"25 570 OFFCURVE",
"55 600 OFFCURVE",
"85 600 CURVE SMOOTH",
"365 600 LINE SMOOTH",
"395 600 OFFCURVE",
"425 570 OFFCURVE",
"425 540 CURVE SMOOTH",
"425 40 LINE SMOOTH",
"425 8 OFFCURVE",
"397 -24 OFFCURVE",
"361 -24 CURVE",
"233 -24 LINE SMOOTH",
"201 -24 OFFCURVE",
"168 8 OFFCURVE",
"168 40 CURVE SMOOTH",
"168 312 LINE SMOOTH",
"168 344 OFFCURVE",
"201 376 OFFCURVE",
"233 376 CURVE SMOOTH",
"328 376 LINE",
"328 484 LINE",
"328 504 OFFCURVE",
"328 504 OFFCURVE",
"308 504 CURVE",
"141 504 LINE",
"121 504 OFFCURVE",
"121 504 OFFCURVE",
"121 484 CURVE",
"121 -84 LINE",
"121 -104 OFFCURVE",
"121 -104 OFFCURVE",
"141 -104 CURVE SMOOTH",
"425 -104 LINE",
"424 -200 LINE",
"89 -200 LINE SMOOTH",
"57 -200 OFFCURVE",
"25 -168 OFFCURVE",
"25 -136 CURVE SMOOTH",
"25 540 LINE SMOOTH"
);
},
{
closed = 1;
nodes = (
"266 280 OFFCURVE",
"266 280 OFFCURVE",
"266 260 CURVE",
"266 92 LINE SMOOTH",
"266 72 OFFCURVE",
"266 72 OFFCURVE",
"286 72 CURVE SMOOTH",
"309 72 LINE",
"328 72 OFFCURVE",
"328 72 OFFCURVE",
"328 92 CURVE",
"328 260 LINE",
"328 280 OFFCURVE",
"328 280 OFFCURVE",
"308 280 CURVE",
"286 280 LINE"
);
}
);
width = 450;
}
);
unicode = 0040;
userData = {
position = 280;
width = 65;
};
},
{
glyphname = bar;
layers = (
{
layerId = "EF4287FA-CE45-4A95-BCF9-A9D9094D729D";
name = Bold;
paths = (
{
closed = 1;
nodes = (
"25 600 LINE",
"121 600 LINE",
"121 -200 LINE",
"25 -200 LINE"
);
}
);
width = 146;
}
);
unicode = 007C;
userData = {
position = 25;
width = 64;
};
},
